<svg xmlns="http://www.w3.org/2000/svg" viewBox="0 0 197 37"><g fill="#FFF" fill-rule="evenodd"><path d="M86.94 8l-4.17 21H78.2l2.46-12.48-8.01 10.26H70.5L66.18 16.4 63.66 29H59.1l4.2-21h3.96l5.25 13.08L82.77 8h4.17zm18.85 4.86L102.58 29h-4.44l.3-1.59a7.08 7.08 0 0 1-4.95 1.83 7.13 7.13 0 0 1-3.48-.87 6.49 6.49 0 0 1-2.54-2.5 7.57 7.57 0 0 1-.94-3.86c0-1.78.4-3.38 1.18-4.82a8.76 8.76 0 0 1 7.73-4.57c2.48 0 4.23.81 5.25 2.43l.42-2.19h4.68zm-8.4 11.84a4.56 4.56 0 0 0 1.68-1.88c.4-.8.6-1.72.6-2.76a3.5 3.5 0 0 0-.98-2.61 3.7 3.7 0 0 0-2.71-.96 4.54 4.54 0 0 0-4.14 2.55c-.4.8-.6 1.72-.6 2.76 0 1.1.32 1.97.97 2.61a3.7 3.7 0 0 0 2.72.96c.92 0 1.74-.22 2.46-.68zm18.06-11.57c.99-.34 2.15-.51 3.5-.51l-.85 4.32-1.08-.06c-1.42 0-2.55.35-3.4 1.05a5.48 5.48 0 0 0-1.73 3.27l-1.56 7.8h-4.68l3.21-16.14h4.44l-.39 1.92a6.07 6.07 0 0 1 2.54-1.65zm13.8 6.75L134.8 29h-5.43l-3.84-6.27-2.85 2.37-.78 3.9h-4.68l4.44-22.26h4.68l-2.5 12.45 7.75-6.33h6.09l-8.43 7.02zm22.63 2.31h-12.36c.16 2.2 1.55 3.3 4.17 3.3.82 0 1.6-.13 2.35-.39a6 6 0 0 0 1.97-1.11l1.95 3.09a9.31 9.31 0 0 1-3.1 1.62c-1.15.36-2.37.54-3.65.54-1.66 0-3.12-.3-4.37-.88a6.55 6.55 0 0 1-2.88-2.54c-.67-1.1-1-2.37-1-3.81 0-1.78.4-3.38 1.21-4.82a8.72 8.72 0 0 1 3.38-3.36 9.86 9.86 0 0 1 4.92-1.21c1.56 0 2.91.29 4.06.87a6.3 6.3 0 0 1 2.67 2.49 7.3 7.3 0 0 1 .95 3.75c0 .74-.1 1.56-.27 2.46zm-10.41-5.18c-.76.6-1.3 1.41-1.62 2.45h8c0-1.04-.32-1.85-.97-2.45a3.76 3.76 0 0 0-2.62-.88c-1.1 0-2.03.3-2.8.89zm20.55-3.88c.99-.34 2.15-.51 3.5-.51l-.85 4.32-1.08-.06c-1.42 0-2.55.35-3.4 1.05a5.48 5.48 0 0 0-1.73 3.27L156.9 29h-4.68l3.21-16.14h4.44l-.39 1.92a6.07 6.07 0 0 1 2.54-1.65zm1.73 15.35a2.6 2.6 0 0 1-.78-1.94c0-.92.3-1.67.9-2.25.6-.58 1.34-.87 2.22-.87.8 0 1.46.25 1.97.75s.76 1.15.76 1.95c0 .9-.3 1.64-.91 2.23-.61.6-1.34.89-2.18.89-.8 0-1.46-.25-1.98-.76zm9.68-15.62h4.65L174.87 29h-4.65l3.2-16.14zm1.15-2.96a2.26 2.26 0 0 1-.76-1.72c0-.8.28-1.46.85-2 .57-.53 1.32-.79 2.24-.79.82 0 1.48.22 2 .68.5.45.76 1 .76 1.66a2.7 2.7 0 0 1-.87 2.08 3.2 3.2 0 0 1-2.25.8c-.8 0-1.46-.23-1.97-.7zm7.55 18.44a6.7 6.7 0 0 1-3.86-6.33 9.07 9.07 0 0 1 4.74-8.16 10.16 10.16 0 0 1 5.01-1.23c1.64 0 3.07.3 4.3.9a6.72 6.72 0 0 1 3.83 6.33c0 1.78-.41 3.38-1.24 4.8a8.93 8.93 0 0 1-3.48 3.36 10.25 10.25 0 0 1-5.03 1.23c-1.62 0-3.04-.3-4.27-.9zm7-3.64a4.56 4.56 0 0 0 1.68-1.88c.4-.8.6-1.72.6-2.76 0-1.1-.32-1.97-.96-2.61a3.65 3.65 0 0 0-2.7-.96 4.54 4.54 0 0 0-4.14 2.55c-.4.8-.6 1.72-.6 2.76 0 1.1.33 1.97.98 2.61a3.7 3.7 0 0 0 2.71.96c.9 0 1.71-.22 2.43-.68z"/><path fill-rule="nonzero" d="M17.13 28.63c.9-.42 1.7-.98 2.4-1.68 1.45-1.45 6.5-6.49 15.16-15.1a2 2 0 0 0 .01-2.83l-2.23-2.24a2 2 0 0 0-2.82-.01L14.4 21.85c-.8.93-1.65 2.91-2.57 5.95-.06.42-.1.95.07 1.34a1 1 0 0 0 .54.54c.46.2 1.4.46 2.87.71 2.4.42 5.48.66 9.34.66 3.87 0 6.96-.24 9.35-.66 1.48-.25 2.4-.52 2.87-.7a1 1 0 0 0-.77-1.87l-.51.16c-.5.15-1.15.29-1.93.43-2.28.39-5.25.63-9 .63-2.99 0-5.48-.15-7.53-.41zM1.24 17C1.72 13.4 2.3 9.9 3 6.5A8.26 8.26 0 0 1 10.84 0H44.8c3.48 0 6.1 2.56 6.13 6 .04 3.5-.23 7.5-.83 12a98.63 98.63 0 0 1-2.3 12.03A9.44 9.44 0 0 1 38.95 37H7.01a6.83 6.83 0 0 1-7-7.5c.32-4.53.73-8.7 1.23-12.5zm14.24 7.41c.42-.57.92-1.14 1.48-1.71 1.54-1.55 5.01-5 10.42-10.35a1 1 0 0 1 1.41 0l.3.29a1 1 0 0 1 0 1.42c-6.03 5.97-9.5 9.42-10.41 10.34-.47.46-1.08.95-1.85 1.45a1 1 0 0 1-1.35-1.44zM29.66 10.1l1.15-1.14a1 1 0 0 1 1.4 0l.3.3a1 1 0 0 1 0 1.4l-1.15 1.15a1 1 0 0 1-1.4 0l-.3-.3a1 1 0 0 1 0-1.4z"/></g></svg>